<svg width="446" height="96" viewBox="0 0 446 96" fill="none" xmlns="http://www.w3.org/2000/svg">
<g clip-path="url(#clip0_2_7)">
<rect width="96" height="95.995" rx="9.79943" fill="white"/>
<path d="M83.1421 36.8062L76.5199 30.1841C75.9857 29.657 75.2733 29.3492 74.5233 29.3215C73.7733 29.2937 73.0401 29.5479 72.4683 30.034C71.5856 30.7854 70.4527 31.1778 69.2943 31.1333C68.1359 31.0888 67.0364 30.6108 66.2139 29.7939C65.3974 28.9714 64.9196 27.8723 64.8752 26.7143C64.8307 25.5562 65.2228 24.4237 65.9738 23.541C66.4599 22.9692 66.7141 22.236 66.6863 21.486C66.6585 20.7361 66.3508 20.0237 65.8237 19.4894L59.1956 12.8599C58.6354 12.3008 57.8764 11.9868 57.085 11.9868C56.2936 11.9868 55.5345 12.3008 54.9744 12.8599L44.4177 23.415C43.766 24.0691 43.2746 24.8652 42.9816 25.7409C42.9246 25.9092 42.8296 26.0622 42.7039 26.1879C42.5782 26.3136 42.4252 26.4086 42.2568 26.4656C41.3808 26.7585 40.5846 27.2506 39.9309 27.9032L12.8601 54.9737C12.3011 55.5338 11.9871 56.2929 11.9871 57.0843C11.9871 57.8757 12.3011 58.6347 12.8601 59.1948L19.4898 65.8169C20.0241 66.344 20.7364 66.6517 21.4864 66.6795C22.2364 66.7073 22.9696 66.4531 23.5414 65.967C24.4221 65.2095 25.5565 64.8128 26.7173 64.8564C27.8781 64.9 28.9795 65.3806 29.8009 66.202C30.6223 67.0234 31.103 68.1248 31.1466 69.2856C31.1901 70.4464 30.7935 71.5808 30.036 72.4615C29.5499 73.0333 29.2956 73.7665 29.3234 74.5164C29.3512 75.2664 29.659 75.9788 30.186 76.5131L36.8082 83.1351C37.3683 83.6942 38.1274 84.0082 38.9188 84.0082C39.7101 84.0082 40.4692 83.6942 41.0293 83.1351L68.1001 56.0646C68.7525 55.4114 69.2446 54.6157 69.5377 53.7402C69.5944 53.5713 69.6895 53.4178 69.8156 53.2918C69.9416 53.1658 70.095 53.0707 70.264 53.0139C71.1392 52.7211 71.9348 52.2296 72.5884 51.5779L83.1436 41.0213C83.7006 40.4612 84.0132 39.7033 84.0129 38.9134C84.0126 38.1235 83.6995 37.3658 83.1421 36.8062ZM48.873 32.3569C48.65 32.5799 48.3853 32.7568 48.094 32.8775C47.8026 32.9982 47.4904 33.0603 47.175 33.0603C46.8597 33.0603 46.5474 32.9982 46.2561 32.8775C45.9648 32.7568 45.7001 32.5799 45.4771 32.3569L43.7499 30.6298C43.3106 30.1772 43.067 29.57 43.0718 28.9393C43.0765 28.3087 43.3292 27.7052 43.7753 27.2593C44.2214 26.8135 44.825 26.561 45.4556 26.5565C46.0863 26.5521 46.6934 26.7959 47.1458 27.2354L48.873 28.9611C49.096 29.1841 49.2729 29.4488 49.3936 29.7401C49.5143 30.0314 49.5764 30.3437 49.5764 30.659C49.5764 30.9744 49.5143 31.2866 49.3936 31.5779C49.2729 31.8693 49.096 32.134 48.873 32.3569ZM55.4756 38.9595C55.0254 39.4094 54.4149 39.6621 53.7784 39.6621C53.1419 39.6621 52.5315 39.4094 52.0812 38.9595L50.4306 37.3088C49.9803 36.8585 49.7273 36.2478 49.7273 35.6109C49.7273 34.9741 49.9803 34.3633 50.4306 33.913C50.8809 33.4627 51.4917 33.2097 52.1285 33.2097C52.7653 33.2097 53.3761 33.4627 53.8264 33.913L55.4771 35.5637C55.7009 35.7866 55.8785 36.0515 55.9997 36.3432C56.1209 36.6349 56.1834 36.9476 56.1835 37.2635C56.1836 37.5794 56.1215 37.8922 56.0005 38.184C55.8795 38.4758 55.7022 38.7409 55.4786 38.964L55.4756 38.9595ZM62.0782 45.562C61.8553 45.7851 61.5905 45.962 61.2992 46.0826C61.0079 46.2033 60.6956 46.2655 60.3803 46.2655C60.0649 46.2655 59.7527 46.2033 59.4613 46.0826C59.17 45.962 58.9053 45.7851 58.6824 45.562L57.0317 43.9114C56.5924 43.4589 56.3488 42.8517 56.3535 42.221C56.3583 41.5903 56.611 40.9868 57.0571 40.541C57.5031 40.0951 58.1067 39.8427 58.7374 39.8382C59.3681 39.8337 59.9752 40.0776 60.4276 40.5171L62.0782 42.1677C62.3026 42.3903 62.4809 42.655 62.6027 42.9466C62.7246 43.2382 62.7877 43.551 62.7884 43.8671C62.7891 44.1831 62.7274 44.4962 62.6068 44.7884C62.4862 45.0805 62.3091 45.346 62.0857 45.5696L62.0782 45.562ZM68.7454 52.2456C68.5224 52.4687 68.2577 52.6455 67.9664 52.7662C67.675 52.8869 67.3628 52.9491 67.0474 52.9491C66.7321 52.9491 66.4198 52.8869 66.1285 52.7662C65.8372 52.6455 65.5725 52.4687 65.3495 52.2456L63.6328 50.52C63.4051 50.2977 63.2239 50.0323 63.0997 49.7394C62.9754 49.4464 62.9107 49.1317 62.9092 48.8135C62.9076 48.4953 62.9694 48.18 63.0908 47.8858C63.2123 47.5917 63.3909 47.3247 63.6165 47.1002C63.842 46.8757 64.11 46.6984 64.4047 46.5784C64.6994 46.4584 65.015 46.3982 65.3332 46.4012C65.6514 46.4043 65.9658 46.4706 66.2582 46.5962C66.5505 46.7219 66.815 46.9044 67.0362 47.1332L68.7544 48.8573C68.9773 49.0804 69.1541 49.3452 69.2746 49.6365C69.3952 49.9279 69.4572 50.2402 69.457 50.5555C69.4569 50.8709 69.3946 51.1831 69.2738 51.4744C69.153 51.7657 68.976 52.0303 68.7529 52.2531L68.7454 52.2456Z" fill="#61161C"/>
<path d="M133.631 68.9975H120.412V36.3158H108.588V27.1356H145.455V36.3158H133.631V68.9975ZM155.559 31.028C153.895 31.028 152.45 30.4649 151.226 29.3388C150.051 28.2127 149.464 26.8663 149.464 25.2995C149.464 23.7328 150.051 22.3863 151.226 21.2602C152.45 20.1341 153.895 19.571 155.559 19.571C157.224 19.571 158.644 20.1341 159.819 21.2602C160.994 22.3863 161.582 23.7328 161.582 25.2995C161.582 26.8663 160.994 28.2127 159.819 29.3388C158.644 30.4649 157.224 31.028 155.559 31.028ZM149.243 35.2142H161.802V68.9975H149.243V35.2142ZM196.451 67.9693C192.485 69.2913 188.054 69.9522 183.158 69.9522C177.674 69.9522 173.562 68.5813 170.82 65.8395C168.127 63.0487 166.781 58.7156 166.781 52.8403C166.781 49.9515 167.172 47.1118 167.956 44.321C168.739 41.4812 169.571 39.5717 170.453 38.5925C171.481 37.4664 173.488 36.5117 176.475 35.7283C179.51 34.9449 182.644 34.5532 185.875 34.5532C189.254 34.5532 192.657 34.847 196.084 35.4345C195.986 36.6585 195.815 38.1029 195.57 39.7676C195.374 41.3833 195.154 42.8277 194.909 44.1007C191.873 43.9048 189.009 43.8069 186.316 43.8069C183.672 43.8069 181.983 43.9538 181.249 44.2475C180.857 44.3944 180.49 45.3981 180.147 47.2587C179.853 49.1192 179.706 50.8573 179.706 52.473C179.706 54.6273 180 56.292 180.588 57.4671C181.224 58.5932 182.203 59.3766 183.525 59.8172C184.847 60.2579 186.634 60.4782 188.887 60.4782C189.866 60.4782 192.02 60.3803 195.349 60.1845L196.451 67.9693ZM236.575 68.9975H222.915L215.938 55.2638C215.252 53.844 214.347 52.9382 213.221 52.5465V68.9975H200.662V24.9323L213.221 24.4182V49.4619C214.396 48.9723 215.399 47.9686 216.232 46.4508L222.474 35.2142L236.208 35.1407L229.084 46.5977C227.958 48.4093 226.734 49.8536 225.412 50.9308C226.538 52.1548 227.811 54.0153 229.231 56.5124L236.575 68.9975ZM259.738 60.1845C260.962 60.1845 263.239 60.062 266.568 59.8172C267.009 59.8172 267.817 59.7683 268.992 59.6704L270.093 67.2349C266.323 68.9975 261.427 69.8788 255.405 69.8788C249.774 69.8788 245.441 68.4589 242.406 65.6192C239.419 62.7794 237.926 58.4953 237.926 52.7668C237.926 49.8291 238.293 46.9894 239.027 44.2475C239.811 41.5057 240.692 39.5962 241.671 38.5191C242.699 37.4419 244.609 36.5117 247.4 35.7283C250.191 34.9449 252.957 34.5532 255.699 34.5532C260.105 34.5532 263.41 35.3366 265.613 36.9033C267.817 38.4701 269.261 40.6489 269.946 43.4397C270.632 46.1815 270.975 49.8781 270.975 54.5294C267.645 54.7253 264.389 54.8232 261.207 54.8232H250.778C250.778 56.39 251.096 57.565 251.733 58.3484C252.418 59.1318 253.373 59.6459 254.597 59.8907C255.821 60.0865 257.535 60.1845 259.738 60.1845ZM251.513 43.2928C251.219 43.4397 250.998 44.0762 250.852 45.2023C250.705 46.3284 250.607 47.6014 250.558 49.0213H254.377C256.678 49.0213 258.343 48.9968 259.371 48.9478C259.371 46.5977 259.028 44.933 258.343 43.9538C257.706 42.9745 256.58 42.4849 254.964 42.4849C253.642 42.4849 252.492 42.7542 251.513 43.2928ZM290.965 55.117C290.965 55.9983 290.989 56.9285 291.038 57.9078C291.087 58.838 291.234 59.4256 291.479 59.6704C291.821 60.0131 293.021 60.1845 295.077 60.1845L297.574 60.111C298.015 62.4612 298.235 65.1785 298.235 68.2631C297.305 68.6058 295.934 68.924 294.123 69.2178C292.36 69.5116 290.671 69.6585 289.055 69.6585C285.677 69.6585 283.057 68.924 281.197 67.4552C279.385 65.9374 278.479 63.6117 278.479 60.4782V42.4115H272.971V35.7283L278.479 35.2142L281.784 27.1356L290.965 26.6215V35.2142H298.749V42.4115H290.965V55.117ZM303.019 27.1356H333.057V36.2424H316.239V44.5413H330.12V52.5465H316.239V68.9975H303.019V27.1356ZM337.08 24.9323L349.638 24.4182V68.9975H337.08V24.9323ZM372.17 69.9522C366.294 69.9522 361.888 68.5813 358.95 65.8395C356.061 63.0487 354.617 58.6667 354.617 52.6934C354.617 49.413 354.911 46.5487 355.498 44.1007C356.135 41.6036 356.894 39.8655 357.775 38.8863C358.901 37.6133 360.957 36.5606 363.944 35.7283C366.98 34.8959 369.819 34.4798 372.463 34.4798C378.779 34.4798 383.284 35.8262 385.977 38.5191C388.67 41.2119 390.016 45.5205 390.016 51.4449C390.016 57.8098 388.572 62.4856 385.683 65.4723C382.794 68.4589 378.29 69.9522 372.17 69.9522ZM372.39 61.3595C374.299 61.3595 375.548 60.6985 376.135 59.3766C376.723 58.0057 377.017 55.6066 377.017 52.1793C377.017 49.7802 376.894 47.9441 376.65 46.6711C376.405 45.3492 375.94 44.3944 375.254 43.8069C374.618 43.1704 373.614 42.8521 372.243 42.8521C370.285 42.8521 369.159 43.0235 368.865 43.3662C368.473 43.709 368.155 44.7861 367.91 46.5977C367.665 48.4093 367.543 50.2943 367.543 52.2527C367.543 55.5821 367.861 57.9322 368.498 59.3031C369.183 60.6741 370.48 61.3595 372.39 61.3595ZM414.877 68.9975H399.013L391.522 35.2142H404.375L407.679 60.3313H407.9L411.645 35.2142H425.232L429.198 60.2579H429.492L432.576 35.2142H445.502L438.011 68.9975H422.074L418.549 48.5806H418.328L414.877 68.9975Z" fill="white"/>
</g>
<defs>
<clipPath id="clip0_2_7">
<rect width="446" height="95.995" fill="white"/>
</clipPath>
</defs>
</svg>
